<svg xmlns="http://www.w3.org/2000/svg" xmlns:xlink="http://www.w3.org/1999/xlink" width="500" zoomAndPan="magnify" viewBox="0 0 375 374.999991" height="500" preserveAspectRatio="xMidYMid meet" version="1.0"><defs><g/></defs><rect x="-37.5" width="450" fill="#ffffff" y="-37.499999" height="449.999989" fill-opacity="1"/><rect x="-37.5" width="450" fill="#ffffff" y="-37.499999" height="449.999989" fill-opacity="1"/><g fill="#323232" fill-opacity="1"><g transform="translate(76.341437, 204.749987)"><g><path d="M 24.09375 -45.375 L 26.5625 -45.375 L 26.5625 0 L 24.09375 0 L 24.09375 -4.5625 L 23.984375 -4.5625 C 23.023438 -3.019531 21.679688 -1.78125 19.953125 -0.84375 C 18.234375 0.0820312 16.347656 0.546875 14.296875 0.546875 C 11.878906 0.546875 9.71875 -0.0195312 7.8125 -1.15625 C 5.90625 -2.289062 4.421875 -3.882812 3.359375 -5.9375 C 2.296875 -7.988281 1.765625 -10.300781 1.765625 -12.875 C 1.765625 -16.6875 2.910156 -19.816406 5.203125 -22.265625 C 7.492188 -24.722656 10.488281 -25.953125 14.1875 -25.953125 C 16.207031 -25.953125 18.085938 -25.507812 19.828125 -24.625 C 21.566406 -23.75 22.953125 -22.546875 23.984375 -21.015625 L 24.09375 -21.015625 Z M 14.25 -1.765625 C 17.21875 -1.765625 19.625 -2.816406 21.46875 -4.921875 C 23.320312 -7.023438 24.25 -9.765625 24.25 -13.140625 C 24.25 -16.222656 23.285156 -18.742188 21.359375 -20.703125 C 19.441406 -22.671875 17 -23.65625 14.03125 -23.65625 C 12.300781 -23.65625 10.675781 -23.164062 9.15625 -22.1875 C 7.632812 -21.21875 6.429688 -19.890625 5.546875 -18.203125 C 4.671875 -16.515625 4.234375 -14.738281 4.234375 -12.875 C 4.234375 -10.820312 4.671875 -8.941406 5.546875 -7.234375 C 6.429688 -5.523438 7.632812 -4.1875 9.15625 -3.21875 C 10.675781 -2.25 12.375 -1.765625 14.25 -1.765625 Z M 14.25 -1.765625 "/></g></g></g><g fill="#323232" fill-opacity="1"><g transform="translate(107.139203, 204.749987)"><g><path d="M 8.6875 -33.875 C 8.6875 -33.25 8.46875 -32.71875 8.03125 -32.28125 C 7.59375 -31.84375 7.0625 -31.625 6.4375 -31.625 C 5.8125 -31.625 5.28125 -31.84375 4.84375 -32.28125 C 4.40625 -32.71875 4.1875 -33.25 4.1875 -33.875 C 4.1875 -34.5 4.40625 -35.03125 4.84375 -35.46875 C 5.28125 -35.914062 5.8125 -36.140625 6.4375 -36.140625 C 7.0625 -36.140625 7.59375 -35.914062 8.03125 -35.46875 C 8.46875 -35.03125 8.6875 -34.5 8.6875 -33.875 Z M 5.171875 -25.40625 L 7.640625 -25.40625 L 7.640625 0 L 5.171875 0 Z M 5.171875 -25.40625 "/></g></g></g><g fill="#323232" fill-opacity="1"><g transform="translate(120.008266, 204.749987)"><g><path d="M 24.46875 -21.015625 L 24.46875 -25.40625 L 26.953125 -25.40625 L 26.953125 -0.765625 C 26.953125 2.347656 26.648438 4.753906 26.046875 6.453125 C 25.441406 8.160156 24.5625 9.609375 23.40625 10.796875 C 22.25 11.992188 20.890625 12.90625 19.328125 13.53125 C 17.773438 14.15625 16.097656 14.46875 14.296875 14.46875 C 10.703125 14.46875 7.757812 13.46875 5.46875 11.46875 C 3.175781 9.46875 1.941406 6.835938 1.765625 3.578125 L 4.234375 3.578125 C 4.378906 6.109375 5.367188 8.171875 7.203125 9.765625 C 9.035156 11.359375 11.328125 12.15625 14.078125 12.15625 C 17.484375 12.15625 20.066406 11.054688 21.828125 8.859375 C 23.585938 6.660156 24.46875 3.488281 24.46875 -0.65625 L 24.46875 -4.40625 L 24.359375 -4.40625 C 23.222656 -2.894531 21.765625 -1.691406 19.984375 -0.796875 C 18.210938 0.0976562 16.375 0.546875 14.46875 0.546875 C 12.15625 0.546875 10.050781 -0.046875 8.15625 -1.234375 C 6.269531 -2.429688 4.796875 -4.054688 3.734375 -6.109375 C 2.671875 -8.160156 2.140625 -10.378906 2.140625 -12.765625 C 2.140625 -15.210938 2.695312 -17.453125 3.8125 -19.484375 C 4.9375 -21.523438 6.46875 -23.113281 8.40625 -24.25 C 10.351562 -25.382812 12.484375 -25.953125 14.796875 -25.953125 C 18.753906 -25.953125 21.941406 -24.304688 24.359375 -21.015625 Z M 14.625 -1.765625 C 17.59375 -1.765625 20.003906 -2.816406 21.859375 -4.921875 C 23.710938 -7.023438 24.640625 -9.765625 24.640625 -13.140625 C 24.640625 -16.222656 23.6875 -18.742188 21.78125 -20.703125 C 19.875 -22.671875 17.414062 -23.65625 14.40625 -23.65625 C 12.6875 -23.65625 11.066406 -23.164062 9.546875 -22.1875 C 8.023438 -21.21875 6.820312 -19.890625 5.9375 -18.203125 C 5.0625 -16.515625 4.625 -14.738281 4.625 -12.875 C 4.625 -10.820312 5.050781 -8.941406 5.90625 -7.234375 C 6.769531 -5.523438 7.972656 -4.1875 9.515625 -3.21875 C 11.054688 -2.25 12.757812 -1.765625 14.625 -1.765625 Z M 14.625 -1.765625 "/></g></g></g><g fill="#323232" fill-opacity="1"><g transform="translate(151.191, 204.749987)"><g><path d="M 8.6875 -33.875 C 8.6875 -33.25 8.46875 -32.71875 8.03125 -32.28125 C 7.59375 -31.84375 7.0625 -31.625 6.4375 -31.625 C 5.8125 -31.625 5.28125 -31.84375 4.84375 -32.28125 C 4.40625 -32.71875 4.1875 -33.25 4.1875 -33.875 C 4.1875 -34.5 4.40625 -35.03125 4.84375 -35.46875 C 5.28125 -35.914062 5.8125 -36.140625 6.4375 -36.140625 C 7.0625 -36.140625 7.59375 -35.914062 8.03125 -35.46875 C 8.46875 -35.03125 8.6875 -34.5 8.6875 -33.875 Z M 5.171875 -25.40625 L 7.640625 -25.40625 L 7.640625 0 L 5.171875 0 Z M 5.171875 -25.40625 "/></g></g></g><g fill="#323232" fill-opacity="1"><g transform="translate(164.067994, 204.749987)"><g><path d="M 16.171875 -47.734375 L 16.171875 -42.734375 L 14.515625 -43.453125 C 13.929688 -43.671875 13.382812 -43.78125 12.875 -43.78125 C 11.695312 -43.78125 10.8125 -43.273438 10.21875 -42.265625 C 9.632812 -41.253906 9.34375 -39.5625 9.34375 -37.1875 L 9.34375 -25.734375 L 16.171875 -25.734375 L 16.171875 -21.125 L 9.34375 -21.125 L 9.34375 0 L 4.40625 0 L 4.40625 -21.125 L 2.140625 -21.125 L 2.140625 -25.734375 L 4.40625 -25.734375 L 4.40625 -38.5 C 4.40625 -41.613281 5.082031 -44.039062 6.4375 -45.78125 C 7.789062 -47.53125 9.878906 -48.40625 12.703125 -48.40625 C 13.910156 -48.40625 15.066406 -48.179688 16.171875 -47.734375 Z M 16.171875 -47.734375 "/></g></g></g><g fill="#323232" fill-opacity="1"><g transform="translate(179.191898, 204.749987)"><g><path d="M 10.390625 -37.515625 C 10.390625 -36.554688 10.0625 -35.753906 9.40625 -35.109375 C 8.75 -34.472656 7.941406 -34.15625 6.984375 -34.15625 C 6.035156 -34.15625 5.226562 -34.472656 4.5625 -35.109375 C 3.90625 -35.753906 3.578125 -36.554688 3.578125 -37.515625 C 3.578125 -38.460938 3.90625 -39.273438 4.5625 -39.953125 C 5.226562 -40.628906 6.035156 -40.96875 6.984375 -40.96875 C 7.941406 -40.96875 8.75 -40.628906 9.40625 -39.953125 C 10.0625 -39.273438 10.390625 -38.460938 10.390625 -37.515625 Z M 9.453125 -25.734375 L 9.453125 0 L 4.515625 0 L 4.515625 -25.734375 Z M 9.453125 -25.734375 "/></g></g></g><g fill="#323232" fill-opacity="1"><g transform="translate(193.160888, 204.749987)"><g><path d="M 25.359375 -15.625 L 25.359375 0 L 20.40625 0 L 20.40625 -15.015625 C 20.40625 -17.578125 20 -19.398438 19.1875 -20.484375 C 18.382812 -21.566406 16.898438 -22.109375 14.734375 -22.109375 C 12.503906 -22.109375 10.882812 -21.410156 9.875 -20.015625 C 8.863281 -18.628906 8.359375 -16.175781 8.359375 -12.65625 L 8.359375 0 L 3.40625 0 L 3.40625 -25.734375 L 8.359375 -25.734375 L 8.359375 -22.28125 L 8.46875 -22.28125 C 9.28125 -23.664062 10.378906 -24.71875 11.765625 -25.4375 C 13.160156 -26.15625 14.644531 -26.515625 16.21875 -26.515625 C 19.34375 -26.515625 21.644531 -25.601562 23.125 -23.78125 C 24.613281 -21.96875 25.359375 -19.25 25.359375 -15.625 Z M 25.359375 -15.625 "/></g></g></g><g fill="#323232" fill-opacity="1"><g transform="translate(221.923802, 204.749987)"><g><path d="M 27.5625 -47.734375 L 27.5625 0 L 22.609375 0 L 22.609375 -4.015625 L 22.5 -4.015625 C 21.507812 -2.546875 20.269531 -1.363281 18.78125 -0.46875 C 17.300781 0.425781 15.625 0.875 13.75 0.875 C 10.15625 0.875 7.203125 -0.429688 4.890625 -3.046875 C 2.585938 -5.671875 1.4375 -9 1.4375 -13.03125 C 1.4375 -16.738281 2.582031 -19.910156 4.875 -22.546875 C 7.164062 -25.191406 10.050781 -26.515625 13.53125 -26.515625 C 15.46875 -26.515625 17.1875 -26.054688 18.6875 -25.140625 C 20.195312 -24.222656 21.46875 -22.992188 22.5 -21.453125 L 22.609375 -21.453125 L 22.609375 -47.734375 Z M 22.875 -12.875 C 22.875 -15.65625 22.078125 -17.890625 20.484375 -19.578125 C 18.890625 -21.265625 16.882812 -22.109375 14.46875 -22.109375 C 12.15625 -22.109375 10.226562 -21.207031 8.6875 -19.40625 C 7.144531 -17.613281 6.375 -15.4375 6.375 -12.875 C 6.375 -10.15625 7.132812 -7.914062 8.65625 -6.15625 C 10.175781 -4.394531 12.128906 -3.515625 14.515625 -3.515625 C 17.015625 -3.515625 19.03125 -4.382812 20.5625 -6.125 C 22.101562 -7.875 22.875 -10.125 22.875 -12.875 Z M 22.875 -12.875 "/></g></g></g><g fill="#323232" fill-opacity="1"><g transform="translate(252.501589, 204.749987)"><g><path d="M 26.015625 -12.484375 L 26.015625 -12.046875 L 6.375 -12.046875 C 6.445312 -9.554688 7.222656 -7.507812 8.703125 -5.90625 C 10.191406 -4.3125 12.003906 -3.515625 14.140625 -3.515625 C 16.046875 -3.515625 17.566406 -3.960938 18.703125 -4.859375 C 19.835938 -5.765625 20.878906 -6.988281 21.828125 -8.53125 L 26.015625 -6.15625 C 24.804688 -3.925781 23.144531 -2.195312 21.03125 -0.96875 C 18.925781 0.257812 16.609375 0.875 14.078125 0.875 C 10.378906 0.875 7.347656 -0.367188 4.984375 -2.859375 C 2.617188 -5.347656 1.4375 -8.613281 1.4375 -12.65625 C 1.4375 -16.863281 2.550781 -20.222656 4.78125 -22.734375 C 7.019531 -25.253906 10.082031 -26.515625 13.96875 -26.515625 C 17.707031 -26.515625 20.648438 -25.289062 22.796875 -22.84375 C 24.941406 -20.40625 26.015625 -16.953125 26.015625 -12.484375 Z M 21.0625 -15.78125 C 20.769531 -17.757812 20.007812 -19.328125 18.78125 -20.484375 C 17.550781 -21.640625 15.929688 -22.21875 13.921875 -22.21875 C 12.046875 -22.21875 10.4375 -21.601562 9.09375 -20.375 C 7.757812 -19.144531 6.945312 -17.613281 6.65625 -15.78125 Z M 21.0625 -15.78125 "/></g></g></g><g fill="#323232" fill-opacity="1"><g transform="translate(279.339642, 204.749987)"><g><path d="M 19.96875 -25.25 L 17.703125 -20.734375 C 17.265625 -21.140625 16.78125 -21.414062 16.25 -21.5625 C 15.71875 -21.707031 15.195312 -21.78125 14.6875 -21.78125 C 12.632812 -21.78125 11.117188 -21.046875 10.140625 -19.578125 C 9.171875 -18.109375 8.6875 -15.890625 8.6875 -12.921875 L 8.6875 0 L 3.734375 0 L 3.734375 -25.734375 L 8.6875 -25.734375 L 8.6875 -21.5625 L 8.859375 -21.5625 C 9.484375 -23.101562 10.40625 -24.3125 11.625 -25.1875 C 12.851562 -26.070312 14.273438 -26.515625 15.890625 -26.515625 C 16.554688 -26.515625 17.242188 -26.398438 17.953125 -26.171875 C 18.671875 -25.953125 19.34375 -25.644531 19.96875 -25.25 Z M 19.96875 -25.25 "/></g></g></g><g fill="#323232" fill-opacity="1"><g transform="translate(274.600621, 226.443427)"><g><path d="M 1.921875 -9.046875 L 1.921875 -5.171875 L 5.765625 -9.046875 L 7.125 -9.046875 L 2.875 -4.84375 L 7.265625 0 L 5.875 0 L 2.171875 -4.15625 L 1.921875 -3.90625 L 1.921875 0 L 0.90625 0 L 0.90625 -9.046875 Z M 1.921875 -9.046875 "/></g></g></g><g fill="#323232" fill-opacity="1"><g transform="translate(281.932633, 226.443427)"><g><path d="M 1.921875 -9.046875 L 1.921875 -5.171875 L 5.765625 -9.046875 L 7.125 -9.046875 L 2.875 -4.84375 L 7.265625 0 L 5.875 0 L 2.171875 -4.15625 L 1.921875 -3.90625 L 1.921875 0 L 0.90625 0 L 0.90625 -9.046875 Z M 1.921875 -9.046875 "/></g></g></g><g fill="#323232" fill-opacity="1"><g transform="translate(289.264645, 226.443427)"><g><path d="M 1.921875 -9.046875 L 1.921875 -5.171875 L 5.765625 -9.046875 L 7.125 -9.046875 L 2.875 -4.84375 L 7.265625 0 L 5.875 0 L 2.171875 -4.15625 L 1.921875 -3.90625 L 1.921875 0 L 0.90625 0 L 0.90625 -9.046875 Z M 1.921875 -9.046875 "/></g></g></g></svg>